<svg xmlns="http://www.w3.org/2000/svg" xml:space="preserve" viewBox="0 0 64 64">
  <circle cx="32" cy="32" r="32" fill="#191919"/>
  <circle cx="32" cy="32" r="28" fill="#282828"/>
  <path fill="#f2ed4e" d="M32 57C28.9 42.9 20.8 34.7 7.2 32 20.8 29.3 28.9 21.1 32 7c3.1 14.1 11.2 22.3 24.8 25C43.2 34.7 35.1 42.9 32 57z"/>
  <path fill="#191919" d="M32 12.6c3.4 9.8 9.6 16.2 19 19.4-9.4 3.2-15.6 9.6-19 19.4-3.4-9.8-9.6-16.2-19-19.4 9.4-3.2 15.6-9.6 19-19.4m0-8.1c-.7 0-1.2.5-1.3 1.1-2.7 14-10.3 22.7-25.1 25.2-1.5.1-1.5 2.4 0 2.5C20.4 35.7 28 44.4 30.8 58.4c.1.7.7 1.1 1.3 1.1.6 0 1.2-.4 1.2-1.1 2.7-14 10.4-22.7 25.1-25.1 1.5-.1 1.5-2.4 0-2.5C43.6 28.3 36 19.6 33.2 5.6c0-.6-.6-1.1-1.2-1.1z"/>
</svg>
