<svg xmlns="http://www.w3.org/2000/svg" xml:space="preserve" viewBox="0 0 64 64">
  <circle cx="32" cy="32" r="32" fill="#191919"/>
  <circle cx="32" cy="32" r="28" fill="#282828"/>
  <path fill="#ff5274" d="M24.26 29.91c-4.1 0-6.2 1.62-6.2 4.85 0 2.74 1.83 5.5 5.9 5.5 5.24-.09 6.43-7.08 4.27-9.18-1.07-1.03-2.62-1.17-3.97-1.17zm26.52 11.4c0 1.32 0 3.47-6 4.66v-.58c-.02-.82-1.23-.82-1.23 0v5.18c-.1 2.29-4.68 2.3-4.78.01v-3.25c0-.81-1.22-.81-1.22 0v4.2c-.1 2.28-4.84 2.29-4.93 0v-4.06c0-.8-1.23-.8-1.23 0v4.05c-.11 2.3-4.81 2.3-4.93 0v-4.19c0-.81-1.23-.81-1.23 0v3.24c-.1 2.3-4.67 2.3-4.78 0v-5.19c0-.8-1.22-.8-1.22 0v.59c-6-1.19-6-3.35-6-4.65 0-2.92 1.74-4.13 2.42-6.8.33-1.25 1.02-4.48.08-6.97-.32-.65-1.34-.24-1.14.44.8 2.18.17 5.07-.13 6.25C10.18 22.89 19.83 10.5 32 10.72c12.17-.22 21.83 12.16 17.55 23.52-.32-1.17-.94-4.08-.14-6.25.27-.74-.84-1.2-1.14-.44-.93 2.5-.25 5.7.09 6.98.67 2.66 2.4 3.87 2.42 6.79zm-4.85-6.56c0-3.21-2.07-4.85-6.18-4.85-3.3-.09-5.19 1.37-5 4.66 0 .9.98 5.7 5.3 5.7 4.06 0 5.88-2.76 5.88-5.5zM32 45.74c5.79.38 3.3-7.75 0-8.52-3.32.78-5.78 8.9 0 8.5v.02z"/>
  <path fill="#191919" d="M24.26 31.13c-4.45 0-4.97 2.08-4.97 3.63 0 1.97 1.22 4.27 4.66 4.27 3.58 0 4.08-4.42 4.08-4.47.13-2.44-.86-3.48-3.77-3.42zm-.32 9.13c-4.05 0-5.87-2.76-5.87-5.5 0-3.22 2.08-4.86 6.19-4.86 1.35 0 2.9.15 3.97 1.17 2.16 2.1.97 9.1-4.29 9.2zm16.11-1.23c3.44 0 4.66-2.3 4.66-4.28 0-1.54-.51-3.61-4.96-3.61-2.91-.06-3.9.99-3.78 3.43 0 .04.5 4.46 4.09 4.46zm-.3-9.13c4.1 0 6.18 1.64 6.18 4.86 0 2.74-1.82 5.5-5.87 5.5-4.33 0-5.31-4.81-5.31-5.7-.18-3.3 1.7-4.76 5-4.66z"/>
  <path fill="#191919" d="M13.85 35.84C7.99 23.67 18.57 9.17 32 9.5c13.44-.32 24.01 14.17 18.15 26.35.87 1.79 1.83 2.97 1.85 5.48 0 2.37-.91 4.7-7.23 5.9v3.35c.02 2.81-4.3 3.92-6.26 2.03-.99 2.25-5.02 2.54-6.51.56-1.49 1.99-5.53 1.7-6.51-.56-1.96 1.89-6.3.78-6.26-2.03v-3.36c-6.32-1.2-7.23-3.54-7.23-5.9.02-2.5.98-3.69 1.85-5.47zm24.92 13.69v1.05c.1 2.29 4.7 2.28 4.78 0v-5.2c0-.8 1.22-.8 1.22 0v.59c6-1.19 6-3.35 6-4.65 0-2.92-1.74-4.13-2.4-6.8-.35-1.25-1.03-4.48-.1-6.97.3-.75 1.42-.3 1.14.44-.8 2.17-.17 5.07.14 6.25C53.83 22.89 44.17 10.5 32 10.72c-12.17-.22-21.82 12.16-17.54 23.52.31-1.17.94-4.08.13-6.25-.2-.69.82-1.08 1.14-.44.93 2.49.25 5.7-.09 6.98-.67 2.66-2.4 3.87-2.4 6.79 0 1.3 0 3.46 5.99 4.65v-.58c0-.82 1.23-.8 1.22 0v5.18c.1 2.3 4.67 2.3 4.78 0v-3.24c0-.81 1.22-.81 1.22 0v4.2c.12 2.3 4.83 2.3 4.94 0v-4.06c0-.8 1.22-.8 1.23 0v4.05c.09 2.3 4.83 2.3 4.93 0v-4.19c0-.81 1.21-.81 1.22 0v2.2z"/>
  <path fill="#191919" d="M32 37.22c3.3.77 5.79 8.9 0 8.52-1.12 0-3.48 0-3.48-3.16 0-2.52 2.28-5.36 3.48-5.36zm0 7.28c1.53 0 2.26-.19 2.26-1.92 0-1.98-1.75-3.93-2.26-4.12-.5.18-2.25 2.15-2.25 4.12 0 1.73.72 1.92 2.25 1.92z"/>
</svg>
